# xmcd CD database file
#
# Track frame offsets:
#	150
#	22020
#	67210
#	106512
#	150459
#	166494
#	186298
#	223985
#	256783
#	307856
#
# Disc length: 4180 seconds
#
# Revision: 0
# Processed by: cddbd v1.5.2PL0 Copyright (c) Steve Scherf et al.
# Submitted via: CDex 1.70beta3
#
DISCID=8310520a
DTITLE=真剣で私に恋しなさい！！ Drama CD vol4 - 真剣で私に恋しなさい！！ Drama CD vol4
DYEAR=2010
DGENRE=ドラマCD
TTITLE0=「第０話　サプライズ・パーティー」
TTITLE1=「第１話　接触！ワン子とまゆっち」
TTITLE2=「第２話　外伝！卓代ちゃんルート」
TTITLE3=「第３話　ガクト、モテる」
TTITLE4=「第４話　みんなのお姉さん」
TTITLE5=「第５話　うちのワンコしりませんか」」
TTITLE6=「第６話　クマコック」
TTITLE7=「第７話　当たるより当てろ」
TTITLE8=「第８話　馬多川アンダーグラウンド」
TTITLE9=「次回予告」
EXTD=YEAR: 2010
EXTT0=
EXTT1=
EXTT2=
EXTT3=
EXTT4=
EXTT5=
EXTT6=
EXTT7=
EXTT8=
EXTT9=
PLAYORDER=
